<svg id="레이어_1" data-name="레이어 1" xmlns="http://www.w3.org/2000/svg" viewBox="0 0 849.49 228.79"><defs><style>.cls-1{fill:#224e98;}.cls-2{fill:#092560;}.cls-3{fill:#113072;}.cls-4{fill:#0f2d6c;}.cls-5{fill:#214895;}.cls-6{fill:#183980;}.cls-7{fill:#1b3d85;}.cls-8{fill:#15357a;}.cls-9{fill:#1d418c;}.cls-10{fill:#0c2965;}.cls-11{fill:#062059;}.cls-12{fill:#0c2966;}.cls-13{fill:#2565a5;}.cls-14{fill:#245da1;}.cls-15{fill:#23549c;}.cls-16{fill:#23579d;}.cls-17{fill:#2561a3;}.cls-18{fill:#23539b;}.cls-19{fill:#133376;}.cls-20{fill:#23589e;}.cls-21{fill:#2562a3;}.cls-22{fill:#204592;}.cls-23{fill:#214694;}</style></defs><path class="cls-1" d="M1213.2,489.4c.39-1.3,1.46-2.07,2.35-2.95A65.62,65.62,0,0,1,1242,470.62a10.51,10.51,0,0,1,1.88-.26c3.9-1.27,4.4,1.45,4.52,4.11.32,6.85.23,13.71.09,20.56-.12,6.19.74,12.42-.55,18.58-6.63,9.66-9.4,20.49-9.79,32.06-.32,9.92-.16,19.79,2,29.56a74,74,0,0,0,6,16.11c1.26,5.19.43,10.45.5,15.67.13,8.76.26,17.53-.1,26.29-.11,2.69.47,6.58-4.42,6.12a15.61,15.61,0,0,1-2.29-.55,64.18,64.18,0,0,1-24.45-17,12.08,12.08,0,0,1-1-1.57c.66-3,.46-6,.46-9.06q0-56.51,0-113C1214.7,495.19,1215.14,492.08,1213.2,489.4Z" transform="translate(-525.12 -415.75)"/><path class="cls-2" d="M727.73,526.18c-.57-1.46-1.15-2.91-1.7-4.37a35.05,35.05,0,0,0-5.39-9.43c-3.39-4.24-7.89-6.72-12.92-8.41-2-1-4.17.11-6.14-.77l-.22.21-.27-.15c-8.49-8.13-16.64-16.6-25-24.88a89.67,89.67,0,0,1-8-8.23c-1.07-1.36-2.85-3.44.89-4h36.83c1.77-.18,2.89.83,4,2q30.21,31.21,61.41,61.44c1.19,1.16,2.31,2.21,2.14,4q0,18,0,35.88c0,2.61-1.45,2.47-3.14,1.6a17.32,17.32,0,0,1-3.95-3.45c-11.94-11.75-23.46-23.93-35.74-35.33C728.66,530.55,728.71,528.22,727.73,526.18Z" transform="translate(-525.12 -415.75)"/><path class="cls-3" d="M626.17,528.05c-.3-1.39-.66-2.77-.9-4.17a31.48,31.48,0,0,0-1.81-6.39,17.54,17.54,0,0,0-11.81-10.85A37.42,37.42,0,0,0,600.88,505c-2.69,0-5.39.07-8.08.11-3.26-.46-3.84-3.76-5.77-5.62-9-8.68-17.8-17.63-26.66-26.5a15.79,15.79,0,0,1-3.11-3.57c-.79-1.51-1.44-3.12,1.32-3.28h31.29c1.66-.22,2.59.87,3.62,1.91q37.86,38.4,76.25,76.28c1,1,2.2,1.9,2,3.59v32.18c.09,2.11-1,2.48-2.73,1.79a11,11,0,0,1-3.34-2.65C653,566.92,641,554,628,542a3.54,3.54,0,0,1-1.28-2.48C626.36,535.72,627.31,531.83,626.17,528.05Z" transform="translate(-525.12 -415.75)"/><path class="cls-4" d="M671.27,546.28a3.27,3.27,0,0,1-2.19-.82c-.91-.89-1.83-1.77-2.73-2.67q-35.7-35.7-71.39-71.42c-1.31-1.31-3.14-2.31-3.3-4.5,1.34-1.31,3-.65,4.52-.66,10.63-.07,21.25,0,31.86,0,1.6-.21,2.63.66,3.69,1.74q23.09,23.64,46.73,46.73a2.81,2.81,0,0,1,.69,1.24c-2.2,4.32-4.56,8.58-5.48,13.43-.53,2.77-1,5.55-1.44,8.33C670.93,540.41,672.52,543.5,671.27,546.28Z" transform="translate(-525.12 -415.75)"/><path class="cls-5" d="M1213.2,489.4c.47-.09.93-.2,1.41-.26.67-.1,1.34,0,1.46.8a18.16,18.16,0,0,1,.18,2.86V616.07c0,.8,0,1.6-.08,2.4-.09,1.17-1,1.54-1.93,1.79h0a3,3,0,0,0-.92-1.06h0a12.94,12.94,0,0,1-.84-1l-.07-.1c-.62-.4-.38-1.43-1.22-1.69l.1.1c-.09-.55-.51-.83-.89-1.15C1208,613,1206.53,610,1205,607a96.76,96.76,0,0,1-9.93-30.83,149.26,149.26,0,0,1-1.64-28.17c.48-12.33,2-24.48,6.4-36.14a76.21,76.21,0,0,1,9.83-18.55,8.34,8.34,0,0,1,2.55-2.8c.51-.21,1-.47,1-1.1Z" transform="translate(-525.12 -415.75)"/><path class="cls-6" d="M525.41,535.72a15.07,15.07,0,0,1-.23-1.88q0-18.27,0-36.54a14.71,14.71,0,0,1,.24-1.87c2.84-1.48,4.06,1,5.49,2.45,10.08,9.93,20.06,20,30.07,30a60.39,60.39,0,0,0,7,6.44c1.72,1.26,3.14,2.73,3,5.11q0,18.41,0,36.77c.13,2-.85,2.61-2.65,1.93a9.26,9.26,0,0,1-3-2.32c-13-12.79-25.63-25.91-38.78-38.54C526.08,536.82,525.84,536.2,525.41,535.72Z" transform="translate(-525.12 -415.75)"/><path class="cls-7" d="M525.41,535.72a15.28,15.28,0,0,1,5.35,3.87q17.67,17.73,35.4,35.39c1.2,1.2,2.14,2.85,4.16,2.92,1.34,1.87.62,4,.64,6,.08,10.23.06,20.46,0,30.69,0,1.33.76,3.13-.87,3.91s-3-.58-4.15-1.66c-7.8-7.57-15.46-15.29-23.09-23-5.84-5.91-12-11.48-17.44-17.77a15.07,15.07,0,0,1-.23-1.88q0-18.27,0-36.55A15,15,0,0,1,525.41,535.72Z" transform="translate(-525.12 -415.75)"/><path class="cls-8" d="M570.31,537.61c-5.39-3.73-9.78-8.54-14.37-13.13q-13.17-13.12-26.3-26.27c-1.21-1.2-2.2-2.8-4.23-2.78-.08-4.63-.2-9.25-.24-13.88q0-6.71,0-13.42c0-1.59.46-2,2-2.07,1.12-.05,2.24,0,3.35,0q91.31,0,182.61,0c2.06,0,4.16-.32,6.15.51-3.72,2.64-7.56,1.88-11.42.39-3.8-.06-7.6-.17-11.4-.17-9.66,0-19.33.11-29,.16a7.77,7.77,0,0,1-5,1.29q-13.75.09-27.5,0a7.83,7.83,0,0,1-4.95-1.29c-3.48-.07-7-.19-10.43-.18-9.33,0-18.65.11-28,.18-3.47-.07-6.93-.2-10.4-.19-8,0-16.09.1-24.13.16-3.8,1.93-7.86.65-11.79,1-2.68.23-5.41-.32-9,.55,14.25,15,29,28.79,42.87,43.39A34.11,34.11,0,0,0,572,527.67a6.46,6.46,0,0,1-.51,1.34,2.94,2.94,0,0,0-.46,2.1C570.63,533.26,571.81,535.58,570.31,537.61Z" transform="translate(-525.12 -415.75)"/><path class="cls-4" d="M772.9,571.2q0-19.69,0-39.37c-2-5.18-2.53-10.35.18-15.47,1.06,2.09.77,4.37.79,6.58.07,6.07,0,12.14,0,18.21l0,97.31c0,1.28,0,2.55,0,3.83-.06,1.81-.39,2.16-2.32,2.17-1.75,0-3.49-.16-5.24-.25-12.15-11.31-23.45-23.49-35.44-35a5.37,5.37,0,0,1-1.51-4.34c.12-12.13-.18-24.26.16-36.38,2.84-1.12,4,1.36,5.45,2.77,10.13,10,20.14,20.07,30.2,30.12a29.29,29.29,0,0,0,2.39,2.34c1.06.85,1.91,2.67,3.5,1.88,1.24-.62.68-2.32.68-3.54,0-8.31,0-16.62,0-24.92C771.74,575.12,771.43,573,772.9,571.2Z" transform="translate(-525.12 -415.75)"/><path class="cls-9" d="M570.31,537.61c.07-2.55.15-5.1.22-7.65a.54.54,0,0,1,.85,0q-.12,54.81-.25,109.61c0,5.12.25,5-5,4.91-3.66-.06-7.34.3-11-.26-10-9.87-20-19.75-29.77-29.82-.08-.94-.23-1.88-.23-2.82q0-16.38,0-32.74c0-.94.15-1.88.24-2.82a15.47,15.47,0,0,1,5.37,3.88q17.22,17.29,34.5,34.52c1,1,2,2,3.12,3a1.51,1.51,0,0,0,1.26.31,1.55,1.55,0,0,0,.75-1.06,8.59,8.59,0,0,0,.1-1.9q0-17.47,0-34.93c0-.64-.11-1.27-.17-1.91.06-7.74.15-15.48.16-23.23C570.48,549,570.37,543.3,570.31,537.61Z" transform="translate(-525.12 -415.75)"/><path class="cls-10" d="M772.9,571.2q0,17,.05,34a12.42,12.42,0,0,1-.23,2.36.87.87,0,0,1-1.1.64,5.81,5.81,0,0,1-2.94-1.51c-.93-.88-1.83-1.78-2.73-2.69q-16.1-16.1-32.19-32.17c-1.24-1.24-2.6-2.35-3.9-3.52-1.16-6.28-.22-12.61-.52-18.91-.27-5.52.54-11.07-.48-16.56a22.93,22.93,0,0,1-1.13-6.67,2.48,2.48,0,0,1,.4.26c1.2,1,.33,2.87,1.65,3.82a28.35,28.35,0,0,1,3,2.28c2.53,2.43,5,4.94,7.45,7.42q14.21,14.2,28.42,28.38C769.89,569.55,770.86,571.19,772.9,571.2Z" transform="translate(-525.12 -415.75)"/><path class="cls-11" d="M773.07,516.36l-.18,15.47a14.85,14.85,0,0,1-5-3.57Q739.71,500,711.48,471.85a15,15,0,0,1-3.62-5l11.42-.38c22.48,1.24,38.78,12,48.83,32.08C770.89,504.14,772.94,510,773.07,516.36Z" transform="translate(-525.12 -415.75)"/><path class="cls-12" d="M630.07,466.87c8.68-.06,17.36-.14,26-.17,3.79,0,7.58.11,11.36.17.09,2,1.76,3,3,4.18q13.35,13.44,26.79,26.8a15.89,15.89,0,0,1,3.86,5.41,16.76,16.76,0,0,1-2.28.54c-6.49.55-11.75,3.51-16.16,8.17-.86.91-1.75,1.8-2.63,2.7-.42.29-.9.54-.87,1.17v0c-1.69-.29-2.79-1.45-3.92-2.59L632,470C631.08,469.14,630,468.33,630.07,466.87Z" transform="translate(-525.12 -415.75)"/><path class="cls-13" d="M1349.9,415.83c2.24.37,5.15-.73,7.88.6.77,2.66.21,5.38.39,8.06.15,2.37-.38,4.77.36,7.1,2.4,1.29,5,.45,7.47.61,2.23.15,4.48.05,6.71.06a1.61,1.61,0,0,1,1.84,1.71c0,1.44,0,2.88,0,4.32,0,2.88,0,5.75,0,8.63,0,2.44-.23,2.62-2.83,2.66-3.84.05-7.68,0-11.52.05-1.53,0-2,.49-2,2-.06,4,0,8-.06,12,0,2.21-.33,2.55-2.49,2.58-4.16.07-8.31.06-12.47,0-1.89,0-2.3-.43-2.34-2.21,0-3,0-6.08,0-9.12,0-.8,0-1.6,0-2.4-.09-2.52-.34-2.83-2.71-2.87-2.88-.06-5.76,0-8.64,0-.8,0-1.6,0-2.39,0-2.53-.08-2.69-.2-2.72-2.79,0-4.16,0-8.32,0-12.47,0-1.53.53-2,2-2.05,3.68,0,7.36,0,11,0,3.3,0,3.34-.09,3.38-3.58,0-3.68,0-7.36,0-11a1.59,1.59,0,0,1,1.76-1.78Z" transform="translate(-525.12 -415.75)"/><path class="cls-14" d="M1304.52,579.18a6.21,6.21,0,0,1,3.88-.18c3.47.82,7,.56,10.48.3,4.2-.32,5.36,1.68,5.38,5.3,0,3.84,0,7.67,0,11.51,0,8,0,16,0,24,0,3.25-.82,6-3.37,8a24.89,24.89,0,0,1-6.49,4.72c-6.15,3.6-12.46,6.85-19.53,8.3-1.34-1.51-.71-3.29-.69-5,.12-12.17.66-24.34-.41-36.5a32.15,32.15,0,0,0,8.51-12.9c.44-1.35.87-2.7,1.3-4C1304.58,581.7,1303.51,580.18,1304.52,579.18Z" transform="translate(-525.12 -415.75)"/><path class="cls-6" d="M626.17,528.05c1,.77,1,1.91,1,3q.06,4.76.14,9.49c2.31,4.47,1.07,9.29,1.32,14,.14,2.67.06,5.36,0,8-.35,9.4-.07,18.82-.15,28.23a7.3,7.3,0,0,0,2.12,5.63c12.54,12.28,24.8,24.85,37.34,37.14a11.55,11.55,0,0,0,2.14,2c-.23-10.23,0-20.73-.13-31.22.17-4.5-.83-9,.8-13.45a1,1,0,0,1,1.46-.42c.08,1.11.22,2.22.22,3.33q0,23.24,0,46.47c0,.8,0,1.6,0,2.4,0,1.1-.44,1.83-1.66,1.85-.8,0-1.59,0-2.39,0H630.49c-.47,0-1,0-1.43,0-2.22-.1-2.55-.4-2.62-2.44-.05-1.28,0-2.56,0-3.83q0-47.43,0-94.85C626.37,538.25,626.24,533.15,626.17,528.05Z" transform="translate(-525.12 -415.75)"/><path class="cls-14" d="M1320.82,530.92l-14.82.2a1.9,1.9,0,0,1-2-1.68c-.23-.93-.35-1.88-.59-2.81a29.9,29.9,0,0,0-8.44-14.75c-.69-.64-1.3-1.37-2-2.07,2.76-.77,3.45-2.68,3.41-5.38q-.15-13.08,0-26.17c0-3-.23-6.05,1.4-8.8,2.61,0,4.92,1.1,7.27,2,5.63,2.08,11.15,4.41,15.85,8.3a6.19,6.19,0,0,1,1.6,4.79c-.41,13-.08,26.08-.21,39.12C1322.33,526.15,1322.69,528.78,1320.82,530.92Z" transform="translate(-525.12 -415.75)"/><path class="cls-15" d="M1247.9,513.61c-1.1-1.73-1-3.66-1-5.58q0-15.58,0-31.16c0-1.12,0-2.24,0-3.36-.08-2.48-.09-2.48-3.1-3.15.81-.9,2-.87,3-1.13,7.16-1.8,14.39-3.16,21.84-2.7,6.86-.82,7.54-.31,7.62,6.39.09,8,.05,15.91,0,23.87,0,2.22.08,4.49-1.56,6.32-3.3.31-6.62.45-9.88,1a26.12,26.12,0,0,0-14.58,7.3C1249.54,512.16,1248.7,512.87,1247.9,513.61Z" transform="translate(-525.12 -415.75)"/><path class="cls-16" d="M1293.82,599.66a4.45,4.45,0,0,1,2.08,4c0,10.63,0,21.27-.06,31.9a34.91,34.91,0,0,1-.92,5.58c-3.53,1.65-7.37,2-11.14,2.57a56.19,56.19,0,0,1-14.77.5c-1.47-1.71-1.45-3.8-1.47-5.88-.11-10.48.24-21-.38-31.44,4.4-.14,8.79.09,13.16-1,3.73-.9,7-2.74,10.52-4.13A2.42,2.42,0,0,0,1292,601l.07,0c.46-.57,1.52-.27,1.72-1.21Z" transform="translate(-525.12 -415.75)"/><path class="cls-17" d="M1320.82,530.92q0-20.68,0-41.38c0-2.35-.25-4.72.53-7.06.26-.79-.26-1.83-.42-2.75,7,4.11,12.41,9.95,17,16.58a65.19,65.19,0,0,1,10.85,28.83c.07.48.09,1,.18,1.43.91,4.67.66,4.58-3.72,4.58-7.18,0-14.36,0-21.54,0C1322.73,531.14,1321.78,531,1320.82,530.92Z" transform="translate(-525.12 -415.75)"/><path class="cls-18" d="M1267.16,606.9c1.6,1.1,1.91,2.65,1.9,4.52-.08,10.94,0,21.87,0,32.8a11.27,11.27,0,0,1-4.8-.16c-2.2-1.06-4.67.23-6.87-.81a39.84,39.84,0,0,1-15.34-3.83c2-.2,2.62-1.7,2.91-3.29a21.11,21.11,0,0,0,.12-3.82c0-11.15,0-22.31,0-33.46a22.91,22.91,0,0,1,1-7.51,23.1,23.1,0,0,1,1.52,1.76C1252.48,600,1258.71,605,1267.16,606.9Z" transform="translate(-525.12 -415.75)"/><path class="cls-19" d="M579.21,511.76A3.45,3.45,0,0,1,577,511c-.92-.89-1.84-1.78-2.75-2.68l-36.63-36.63c-.34-.34-.71-.66-1-1-.8-.95-2.48-1.71-2-3,.61-1.72,2.51-.91,3.83-.92,6.23,0,12.46.08,18.7.15,0,1.84,1.5,2.74,2.6,3.85q12.85,12.92,25.76,25.79a38.94,38.94,0,0,0,4.11,4c1.66,1.22,1.62,3.46,3.2,4.64-.13.09-.25.24-.39.27A30.17,30.17,0,0,0,579.21,511.76Z" transform="translate(-525.12 -415.75)"/><path class="cls-20" d="M1274.77,503.11q0-15.54,0-31.09c0-.8,0-1.6,0-2.39-.11-2.51-.37-2.8-2.72-3-1.11-.08-2.22-.1-3.34-.14a4.86,4.86,0,0,1,2.78-.48,111.61,111.61,0,0,1,25.11,2.74,5.55,5.55,0,0,1,1.24.67c.27.89,1,1.74.52,2.72-.82,1.83-.54,3.75-.54,5.64,0,9.69,0,19.38,0,29.07a31.68,31.68,0,0,1-.25,3.77.81.81,0,0,1-1.08.62c-1.21-.33-2-1.6-3.43-1.47-3.75-2.23-7.51-4.47-11.84-5.44C1279.07,503.89,1276.91,503.53,1274.77,503.11Z" transform="translate(-525.12 -415.75)"/><path class="cls-21" d="M1320.94,628.13a13.18,13.18,0,0,0,1.86-7.64c-.11-11.59,0-23.18,0-34.77,0-1.27,0-2.54-.07-3.81s-.66-1.95-2.14-2c-3-.08-6,0-9-.06-1.1,0-2.25.12-3.09-.86,1.27-.07,2.54-.2,3.81-.2,10.66,0,21.33,0,32,0,1,0,1.91,0,2.86,0,1.35.07,1.76.48,1.7,1.69a22.73,22.73,0,0,1-.28,2.85,71.66,71.66,0,0,1-25.92,43.81A11.91,11.91,0,0,1,1320.94,628.13Z" transform="translate(-525.12 -415.75)"/><path class="cls-3" d="M728.86,532.85c1.32,1.1.93,2.62.94,4,0,8.11,0,16.21,0,24.32,0,2.38,0,4.77,0,7.15,0,11.8,0,23.59-.08,35.39A5.5,5.5,0,0,0,732,608.6a96.34,96.34,0,0,1,7.53,7.33q12,12,24,24c1.21,1.22,2.8,2.23,2.78,4.26a7.78,7.78,0,0,1-1.4.25q-16.51,0-33,0a13.86,13.86,0,0,1-1.44-.05,1.46,1.46,0,0,1-1.47-1.53c0-1.43-.05-2.87-.05-4.3l0-96.67Z" transform="translate(-525.12 -415.75)"/><path class="cls-22" d="M525.41,614.4c1.82,0,2.78,1.33,3.89,2.43L548.43,636c1.79,1.79,3.56,3.59,5.37,5.37a3.94,3.94,0,0,1,1.38,2.9c-1.1.1-2.21.27-3.32.27q-12.23,0-24.45,0c-1.72,0-2.2-.39-2.19-1.8C525.27,633.24,524.86,623.81,525.41,614.4Z" transform="translate(-525.12 -415.75)"/><path class="cls-8" d="M672.19,590.41h-.91c-2.07-2.87-1.89-5.75,0-8.64V546.28q0-3.06,0-6.11a2.84,2.84,0,0,1,1-2.53c.06,1,.18,1.9.19,2.84q0,23.31,0,46.62C672.4,588.21,672.27,589.31,672.19,590.41Z" transform="translate(-525.12 -415.75)"/><path class="cls-16" d="M1257.34,643.25l4.76-.06a2.58,2.58,0,0,1,2.11.87C1261.87,644.19,1259.54,644.31,1257.34,643.25Z" transform="translate(-525.12 -415.75)"/><path class="cls-12" d="M701.58,503.2c1.37,0,2.74-.08,4.11-.1a2.51,2.51,0,0,1,2,.87A17.49,17.49,0,0,1,701.58,503.2Z" transform="translate(-525.12 -415.75)"/><path class="cls-21" d="M1304.52,579.18c-.09,1.23.38,2.6-.89,3.54C1303.69,581.48,1303.15,580.09,1304.52,579.18Z" transform="translate(-525.12 -415.75)"/><path class="cls-14" d="M1293.81,599.74c-.17,1-.88,1.18-1.72,1.21A2.12,2.12,0,0,1,1293.81,599.74Z" transform="translate(-525.12 -415.75)"/><path class="cls-1" d="M1211.23,616.43c.91.2,1.15.89,1.22,1.69A2,2,0,0,1,1211.23,616.43Z" transform="translate(-525.12 -415.75)"/><path class="cls-6" d="M571.38,530h-.85c.31-.32.62-.63.92-1Z" transform="translate(-525.12 -415.75)"/><path class="cls-4" d="M679.15,515.84a1.2,1.2,0,0,1,.87-1.18A1.2,1.2,0,0,1,679.15,515.84Z" transform="translate(-525.12 -415.75)"/><path class="cls-14" d="M1292,601a1.38,1.38,0,0,1-1.18.81A1.23,1.23,0,0,1,1292,601Z" transform="translate(-525.12 -415.75)"/><path class="cls-1" d="M1213.22,489.43a1.23,1.23,0,0,1-1,1.1A1.3,1.3,0,0,1,1213.22,489.43Z" transform="translate(-525.12 -415.75)"/><path class="cls-1" d="M1210.44,615.38a1.33,1.33,0,0,1,.89,1.15A1.17,1.17,0,0,1,1210.44,615.38Z" transform="translate(-525.12 -415.75)"/><path class="cls-1" d="M1212.52,618.22l.84,1A1,1,0,0,1,1212.52,618.22Z" transform="translate(-525.12 -415.75)"/><path class="cls-1" d="M1213.36,619.21l.92,1A1.09,1.09,0,0,1,1213.36,619.21Z" transform="translate(-525.12 -415.75)"/><path class="cls-23" d="M800.77,530.1q0-54.45,0-108.89c0-6-.64-5.41,5.33-5.41h83.47a114.93,114.93,0,0,1,40.85,7.15c24.54,9.24,42.2,26,53.45,49.55A119.72,119.72,0,0,1,994.8,514a167.61,167.61,0,0,1-.23,31.12c-2,20.16-7.38,39.26-18.41,56.42-14.27,22.23-34.41,36.09-60.35,41.34a95.4,95.4,0,0,1-19.08,1.65H805.59c-5.28,0-4.82.28-4.82-5Q800.76,584.78,800.77,530.1ZM847.22,600c0,1.43,0,2.87.15,4.3a1.31,1.31,0,0,0,1.24,1.22c.8.08,1.6.1,2.39.1,12.46,0,24.92,0,37.38,0a73.09,73.09,0,0,0,16.15-1.88c14.54-3.34,25.48-11.41,32.19-24.88,1.21-2.43,2.28-4.93,3.25-7.46a98.43,98.43,0,0,0,5.56-25.18,169.05,169.05,0,0,0-.78-42.52,73.63,73.63,0,0,0-5.69-20.2,43.43,43.43,0,0,0-26.21-23.74A74.29,74.29,0,0,0,894.61,456c-14.83-1.22-29.7-.41-44.54-.61-2.51,0-2.76.31-2.85,2.73,0,1.28,0,2.56,0,3.84v68.53Q847.21,565.27,847.22,600Z" transform="translate(-525.12 -415.75)"/><path class="cls-23" d="M1180.39,555.19c-.15,14.35-2.16,28.32-8,41.6-10.11,23-27.46,37.61-51.52,44.4-11.52,3.25-23.31,3.72-35.18,3a88.27,88.27,0,0,1-28.42-6.24c-24-9.76-39.17-27.48-46.21-52.22a112.75,112.75,0,0,1-3.34-43.23,97.88,97.88,0,0,1,5.88-25.11c9.56-24.7,27.33-40.42,52.59-47.76,11-3.18,22.28-4,33.71-3.41a91.23,91.23,0,0,1,28.56,5.59c25.65,9.88,41.41,28.55,48.4,54.87C1179.64,537.11,1180.06,543.87,1180.39,555.19Zm-45.82-11.53a57.52,57.52,0,0,0-5.7-20.65c-4.48-8.67-11.33-14.51-20.8-17.13a51.38,51.38,0,0,0-27-.21c-10.06,2.59-17.25,8.7-21.84,17.94a51,51,0,0,0-4.23,12.68,100.36,100.36,0,0,0-.73,34.31,53,53,0,0,0,5.73,18.17A32.8,32.8,0,0,0,1079.88,605a52.77,52.77,0,0,0,17.54,1.82c17.29-.63,29.13-9.63,34.38-26.14.38-1.22.7-2.46,1-3.69,1.86-7,2.19-14.18,2.34-22.75C1135,551.63,1135,547.62,1134.57,543.66Z" transform="translate(-525.12 -415.75)"/><path class="cls-19" d="M671.27,581.77q0,4.32,0,8.64,0,7.2,0,14.39c-2.84,1.47-4-1.07-5.45-2.47q-16.11-15.89-32-32c-2.2-2.23-5.22-3.7-6.55-6.77q0-11.52,0-23a16.78,16.78,0,0,1,5.31,4Q649.79,561.77,667,579C668.25,580.17,669.24,581.78,671.27,581.77Z" transform="translate(-525.12 -415.75)"/><path class="cls-8" d="M627.28,563.58a44.56,44.56,0,0,1,8.37,7Q651.3,586.34,667,602c1.21,1.21,2.2,2.81,4.23,2.81V634a12.11,12.11,0,0,1-.08,1.91c-.14.86-.79.84-1.44.65-1.61-.49-2.58-1.83-3.7-2.94q-14.92-14.89-29.81-29.79c-2.48-2.48-4.93-5-7.57-7.31a3.91,3.91,0,0,1-1.52-3.27c0-3.83,0-7.66,0-11.49Q627.21,572.68,627.28,563.58Z" transform="translate(-525.12 -415.75)"/></svg>